<svg width="44" height="44" viewBox="0 0 44 44" fill="none" xmlns="http://www.w3.org/2000/svg">
<path fill-rule="evenodd" clip-rule="evenodd" d="M22 0C9.85 0 0 9.85 0 22C0 34.15 9.85 44 22 44C34.15 44 44 34.15 44 22C44 9.85 34.15 0 22 0ZM29.414 17.414C29.7783 17.0368 29.9799 16.5316 29.9753 16.0072C29.9708 15.4828 29.7605 14.9812 29.3896 14.6104C29.0188 14.2395 28.5172 14.0292 27.9928 14.0247C27.4684 14.0201 26.9632 14.2217 26.586 14.586L22 19.172L17.414 14.586C17.2295 14.395 17.0088 14.2426 16.7648 14.1378C16.5208 14.033 16.2584 13.9778 15.9928 13.9755C15.7272 13.9732 15.4639 14.0238 15.2181 14.1244C14.9723 14.2249 14.749 14.3734 14.5612 14.5612C14.3734 14.749 14.2249 14.9723 14.1244 15.2181C14.0238 15.4639 13.9732 15.7272 13.9755 15.9928C13.9778 16.2584 14.033 16.5208 14.1378 16.7648C14.2426 17.0088 14.395 17.2295 14.586 17.414L19.172 22L14.586 26.586C14.395 26.7705 14.2426 26.9912 14.1378 27.2352C14.033 27.4792 13.9778 27.7416 13.9755 28.0072C13.9732 28.2728 14.0238 28.5361 14.1244 28.7819C14.2249 29.0277 14.3734 29.251 14.5612 29.4388C14.749 29.6266 14.9723 29.7751 15.2181 29.8756C15.4639 29.9762 15.7272 30.0268 15.9928 30.0245C16.2584 30.0222 16.5208 29.967 16.7648 29.8622C17.0088 29.7574 17.2295 29.605 17.414 29.414L22 24.828L26.586 29.414C26.9632 29.7783 27.4684 29.9799 27.9928 29.9753C28.5172 29.9708 29.0188 29.7605 29.3896 29.3896C29.7605 29.0188 29.9708 28.5172 29.9753 27.9928C29.9799 27.4684 29.7783 26.9632 29.414 26.586L24.828 22L29.414 17.414Z" fill="black"/>
</svg>
