<svg width="68" height="68" viewBox="0 0 68 68" fill="none" xmlns="http://www.w3.org/2000/svg">
<rect width="68" height="68" rx="29" fill="#E3F1F2"/>
<path d="M46.82 18L42 22.82V23.18L46.82 28H54V32H45.18L42 28.82V34H40C38.9391 34 37.9217 33.5786 37.1715 32.8284C36.4214 32.0783 36 31.0609 36 30V25H29.72C29.54 25.74 29.24 26.44 28.84 27.1L40.36 48H50C51.0608 48 52.0783 48.4214 52.8284 49.1716C53.5785 49.9217 54 50.9391 54 52V54H14V52C14 50.9391 14.4214 49.9217 15.1715 49.1716C15.9217 48.4214 16.9391 48 18 48H31.22L21.84 31C20.0886 30.9704 18.3952 30.3676 17.019 29.284C15.6428 28.2003 14.6596 26.6956 14.22 25C13.9588 23.9809 13.9011 22.9203 14.0504 21.8789C14.1996 20.8375 14.5528 19.8358 15.0897 18.9311C15.6266 18.0264 16.3366 17.2364 17.1792 16.6065C18.0218 15.9766 18.9803 15.519 20 15.26C24.26 14.16 28.62 16.72 29.72 21H36V16C36 14.9391 36.4214 13.9217 37.1715 13.1716C37.9217 12.4214 38.9391 12 40 12H42V17.18L45.18 14H54V18H46.82ZM22 19C20.9391 19 19.9217 19.4214 19.1715 20.1716C18.4214 20.9217 18 21.9391 18 23C18 24.0609 18.4214 25.0783 19.1715 25.8284C19.9217 26.5786 20.9391 27 22 27C23.0608 27 24.0783 26.5786 24.8284 25.8284C25.5785 25.0783 26 24.0609 26 23C26 21.9391 25.5785 20.9217 24.8284 20.1716C24.0783 19.4214 23.0608 19 22 19Z" fill="#539196"/>
</svg>
